PathFileType	4	(X/Y/Z)	Walk8.trc
DataRate	CameraRate	NumFrames	NumMarkers	Units	OrigDataRate	OrigDataStartFrame	OrigNumFrames
200.000000	200.000000	6	61	mm	200.000000	671	754
Frame#	Times		RCAR		LUA1		LCAR		LFA1		LWRU		RTB3		RFHD		LElbow		RToe		LTH3		RTH2		RMT5		LWRR		LElbowM		RTB2		RMT1		LFHD		RPSI		STRN		RLFC		C7		RTH1		LTH4		RFA1		LTH2		T10		LLFC		RLMAL		LASI		CLAV		LPSI		RUA1		RBack		RTH3		RElbowM		LACR1		LCAL		RElbow		LMFC		LTB1		RWRR		RTH4		LTB2		LMT5		RTB4		RACR1		RMFC		LTB3		RMMAL		LTB4		LLMAL		LToe		RBHD		RWRU		RTB1		LTH1		LMMAL		LBHD		RCAL		LMT1		RASI
			X1	Y1	Z1	X2	Y2	Z2	X3	Y3	Z3	X4	Y4	Z4	X5	Y5	Z5	X6	Y6	Z6	X7	Y7	Z7	X8	Y8	Z8	X9	Y9	Z9	X10	Y10	Z10	X11	Y11	Z11	X12	Y12	Z12	X13	Y13	Z13	X14	Y14	Z14	X15	Y15	Z15	X16	Y16	Z16	X17	Y17	Z17	X18	Y18	Z18	X19	Y19	Z19	X20	Y20	Z20	X21	Y21	Z21	X22	Y22	Z22	X23	Y23	Z23	X24	Y24	Z24	X25	Y25	Z25	X26	Y26	Z26	X27	Y27	Z27	X28	Y28	Z28	X29	Y29	Z29	X30	Y30	Z30	X31	Y31	Z31	X32	Y32	Z32	X33	Y33	Z33	X34	Y34	Z34	X35	Y35	Z35	X36	Y36	Z36	X37	Y37	Z37	X38	Y38	Z38	X39	Y39	Z39	X40	Y40	Z40	X41	Y41	Z41	X42	Y42	Z42	X43	Y43	Z43	X44	Y44	Z44	X45	Y45	Z45	X46	Y46	Z46	X47	Y47	Z47	X48	Y48	Z48	X49	Y49	Z49	X50	Y50	Z50	X51	Y51	Z51	X52	Y52	Z52	X53	Y53	Z53	X54	Y54	Z54	X55	Y55	Z55	X56	Y56	Z56	X57	Y57	Z57	X58	Y58	Z58	X59	Y59	Z59	X60	Y60	Z60	X61	Y61	Z61

671	3.355	726.88	894.63	370.5	459.72	1291.8	-248.17	473.07	801.89	-258.49	406.34	991.55	-275.5	412.88	857.16	-263.02	264.65	230.1	130.14	477.86	1637	-55.393	412.17	1142.4	-268.6	257.74	31.565	137.59	611.39	616.75	-139.41	555.49	682.64	196.47	170.89	55.013	184.31	473.61	856.84	-206.94	373.41	1141.1	-201.28	303.87	308.06	199.89	221.11	47.231	113.11	487.63	1642.7	86.673	361.76	1015.4	60.84	643.76	1251.6	8.311	428.71	490.31	213.08	457.58	1506.1	15.656	498.99	788.55	216.61	587.09	705.04	-156.1	579.64	1006.1	361.53	651.52	727.16	-133.02	358.13	1280.7	15.34	627.58	516.38	-127.88	141.88	169.07	161.91	579.04	1030.8	-116.7	590.89	1422.9	11.774	362.2	1012.1	-17.646	522.95	1293.8	280.73	386.09	1416.3	149.01	468.73	600.86	215.11	482.24	1112.1	259.34	523.63	1462.7	-155.64	569.87	28.903	-36.927	505.3	1141.2	335.32	643.65	526.57	1.0834	685.45	385.11	-50.358	710.28	925.38	313.08	486.58	693.48	219.45	654.45	295.45	-118.4	722.81	22.605	-122.16	333.24	291.89	139.46	538.83	1457.3	172.36	463.92	487.97	86.131	672.55	199.24	-45.21	192.83	164.84	89.037	679.43	295.28	-46.716	626.54	68.834	-83.186	827.61	31.126	-59.487	657.1	1683.4	-24.354	659.13	893.75	362.13	401.82	355.67	150.83	564.82	794.59	-169.2	657.48	91.446	-3.9865	661.76	1685.2	52.179	87.562	180.73	104.48	775.97	39.222	-40.905	573.28	1031	162.05
672	3.36	727.3	892.44	369.44	466.55	1292	-249.31	482.65	802.31	-259.46	414.96	991.55	-276.86	422.21	857.25	-264.38	272.87	232.18	130.74	483.04	1637.6	-56.641	419.87	1142.4	-269.98	261.75	32.712	138.65	614.68	616.92	-140.08	563.81	683.33	197.01	175.97	58.273	184.73	482.64	857.25	-207.94	380.76	1140.9	-202.87	313	309.62	200.45	225.94	49.089	113.73	492.75	1643.5	85.419	367.07	1015.8	60.044	649.03	1252.4	7.6583	439.37	490.01	213.83	462.64	1506.7	14.478	505.89	788.59	216.57	591.13	705.41	-156.77	581.46	1005.9	359.94	655.84	726.96	-134.01	363.45	1281.2	14.279	630.39	516.37	-128.43	149.2	172.83	162.27	584.65	1031.7	-117.39	596.06	1423.6	10.894	367.66	1012.8	-18.52	527.25	1294.4	279.37	391.03	1417.1	147.85	478.11	600.5	215.66	485.77	1113.1	257.29	529.15	1463.2	-156.57	569.82	28.892	-36.998	508.76	1141.8	333.46	646.99	526.65	0.3876	687.74	384.8	-50.916	711.19	923.5	312.07	494.73	693.36	219.76	655.88	295.27	-118.72	722.78	22.603	-122.23	342.17	293.12	140.12	543.71	1458.2	171.35	475.36	487.46	87	673.43	199.01	-45.462	200.24	167.79	89.467	681.05	295	-47.101	626.49	68.872	-83.211	827.6	31.131	-59.511	662.26	1684	-25.6	659.56	892.63	360.97	411.7	356.09	151.51	569.63	795.15	-169.94	657.52	91.434	-4.0178	666.91	1686	50.928	95.261	185.65	104.69	775.91	39.313	-40.944	578.64	1031.9	161.35
673	3.365	727.64	890.25	368.37	473.38	1292.3	-250.43	492.38	802.78	-260.41	423.65	991.57	-278.21	431.66	857.37	-265.72	281.31	234.27	131.28	488.19	1638.2	-57.852	427.58	1142.4	-271.35	266.45	34.023	139.76	617.77	617.04	-140.72	572.09	684.12	197.57	181.61	61.577	185.21	491.79	857.71	-208.94	388.14	1140.8	-204.46	322.32	311.19	200.96	231.38	51.08	114.41	497.85	1644.3	84.199	372.35	1016.1	59.241	654.25	1253.1	7.0525	450.03	489.82	214.53	467.68	1507.3	13.323	512.74	788.71	216.57	594.98	705.72	-157.41	583.24	1005.7	358.37	660	726.69	-135.02	368.73	1281.8	13.227	633.02	516.34	-128.96	156.84	176.49	162.59	590.19	1032.7	-118.03	601.21	1424.4	10.054	373.06	1013.5	-19.377	531.49	1295	278.05	395.92	1417.9	146.7	487.46	600.23	216.18	489.28	1114.1	255.27	534.67	1463.7	-157.47	569.76	28.881	-37.06	512.19	1142.3	331.61	650.03	526.66	-0.27571	689.92	384.49	-51.483	712.02	921.62	311.05	502.83	693.32	220.08	657.19	295.09	-119.03	722.76	22.597	-122.29	351.25	294.39	140.69	548.55	1459.1	170.4	486.79	487.12	87.817	674.27	198.79	-45.727	207.93	170.68	89.839	682.6	294.72	-47.496	626.43	68.91	-83.232	827.58	31.155	-59.537	667.4	1684.6	-26.814	659.94	891.55	359.82	421.69	356.61	152.11	574.28	795.65	-170.65	657.56	91.421	-4.0513	672.03	1686.7	49.709	103.24	190.29	104.87	775.85	39.395	-40.981	583.94	1032.8	160.73
674	3.37	727.91	888.08	367.29	480.2	1292.6	-251.54	502.24	803.31	-261.34	432.41	991.61	-279.55	441.22	857.51	-267.04	289.98	236.35	131.76	493.32	1638.9	-59.029	435.32	1142.5	-272.72	271.84	35.48	140.91	620.68	617.1	-141.32	580.33	685.01	198.13	187.82	64.877	185.74	501.05	858.23	-209.92	395.54	1140.6	-206.05	331.8	312.76	201.42	237.43	53.168	115.14	502.92	1645.1	83.014	377.6	1016.5	58.433	659.43	1253.9	6.4929	460.68	489.75	215.17	472.7	1507.9	12.195	519.54	788.89	216.6	598.67	705.98	-158.02	584.98	1005.6	356.8	664.01	726.35	-136.01	373.98	1282.3	12.185	635.51	516.28	-129.47	164.79	180.02	162.88	595.65	1033.6	-118.61	606.32	1425.1	9.2512	378.4	1014.2	-20.205	535.68	1295.5	276.77	400.76	1418.7	145.54	496.76	600.06	216.66	492.79	1115	253.27	540.17	1464.3	-158.34	569.71	28.87	-37.113	515.59	1142.9	329.79	652.79	526.63	-0.90098	692	384.17	-52.052	712.78	919.75	310.02	510.87	693.38	220.4	658.39	294.91	-119.34	722.74	22.584	-122.34	360.49	295.68	141.18	553.33	1460	169.49	498.16	486.96	88.579	675.06	198.57	-46.003	215.92	173.49	90.155	684.07	294.43	-47.898	626.36	68.948	-83.252	827.54	31.191	-59.563	672.51	1685.2	-27.996	660.25	890.5	358.68	431.78	357.24	152.63	578.77	796.1	-171.33	657.6	91.408	-4.086	677.14	1687.4	48.522	111.49	194.63	105.03	775.78	39.467	-41.014	589.18	1033.7	160.21
675	3.375	728.11	885.94	366.19	487.03	1292.9	-252.63	512.23	803.91	-262.26	441.22	991.67	-280.88	450.89	857.68	-268.34	298.88	238.4	132.18	498.43	1639.5	-60.169	443.07	1142.6	-274.09	277.93	37.053	142.06	623.47	617.14	-141.89	588.51	686.01	198.69	194.59	68.123	186.29	510.44	858.81	-210.9	402.96	1140.4	-207.64	341.43	314.33	201.85	244.09	55.313	115.9	507.98	1645.9	81.864	382.81	1016.9	57.623	664.58	1254.6	5.9782	471.29	489.82	215.77	477.7	1508.6	11.093	526.28	789.17	216.64	602.22	706.2	-158.59	586.68	1005.4	355.26	667.88	725.98	-136.97	379.19	1282.9	11.157	637.87	516.22	-129.96	173.05	183.37	163.13	601.04	1034.5	-119.13	611.42	1425.9	8.4851	383.7	1014.9	-20.997	539.8	1296.1	275.55	405.55	1419.5	144.39	506	600.01	217.11	496.29	1116	251.29	545.67	1464.8	-159.17	569.66	28.862	-37.158	518.97	1143.4	328	655.29	526.56	-1.4836	693.99	383.84	-52.618	713.48	917.9	308.99	518.86	693.53	220.72	659.5	294.72	-119.64	722.72	22.567	-122.4	369.89	297	141.61	558.08	1460.9	168.64	509.47	486.99	89.285	675.82	198.35	-46.285	224.21	176.19	90.42	685.48	294.14	-48.3	626.28	68.988	-83.268	827.5	31.23	-59.587	677.6	1685.8	-29.145	660.52	889.48	357.54	441.95	357.98	153.08	583.13	796.51	-171.98	657.64	91.396	-4.1202	682.22	1688.1	47.368	120.01	198.62	105.14	775.7	39.528	-41.045	594.36	1034.6	159.77
676	3.38	728.25	883.82	365.09	493.85	1293.3	-253.7	522.35	804.56	-263.16	450.08	991.76	-282.2	460.65	857.87	-269.61	308	240.41	132.55	503.52	1640.1	-61.275	450.84	1142.7	-275.45	284.71	38.709	143.21	626.16	617.15	-142.42	596.62	687.13	199.24	201.92	71.269	186.86	519.93	859.44	-211.87	410.41	1140.2	-209.23	351.19	315.89	202.23	251.37	57.475	116.68	513.01	1646.7	80.748	388	1017.3	56.816	669.68	1255.3	5.5066	481.85	490.04	216.31	482.69	1509.2	10.02	532.97	789.54	216.7	605.65	706.39	-159.13	588.36	1005.3	353.74	671.65	725.6	-137.89	384.36	1283.5	10.145	640.15	516.14	-130.41	181.63	186.53	163.34	606.34	1035.4	-119.6	616.49	1426.6	7.7537	388.95	1015.6	-21.746	543.86	1296.7	274.37	410.31	1420.3	143.25	515.18	600.09	217.53	499.77	1116.9	249.36	551.15	1465.4	-159.97	569.61	28.857	-37.196	522.31	1143.9	326.24	657.58	526.46	-2.0203	695.91	383.52	-53.172	714.1	916.06	307.95	526.79	693.8	221.03	660.54	294.54	-119.93	722.7	22.545	-122.44	379.43	298.32	142	562.79	1461.8	167.84	520.69	487.19	89.933	676.55	198.13	-46.565	232.81	178.77	90.639	686.83	293.85	-48.699	626.2	69.03	-83.283	827.46	31.267	-59.611	682.67	1686.5	-30.259	660.74	888.5	356.4	452.19	358.82	153.47	587.36	796.87	-172.6	657.67	91.385	-4.1529	687.28	1688.8	46.249	128.79	202.27	105.21	775.64	39.578	-41.073	599.49	1035.4	159.41
